<mxfile host="app.diagrams.net" modified="2023-07-15T14:11:32.835Z" agent="Mozilla/5.0 (Windows NT 10.0; Win64; x64) AppleWebKit/537.36 (KHTML, like Gecko) Chrome/114.0.0.0 Safari/537.36 Edg/114.0.1823.82" etag="Y6ARBtksDDp4a1_vhMKx" version="21.6.1" type="github">
  <diagram name="第 1 页" id="zh-cT4Pn9gCUyjGk3mE_">
    <mxGraphModel dx="1363" dy="759" grid="1" gridSize="10" guides="1" tooltips="1" connect="1" arrows="1" fold="1" page="1" pageScale="1" pageWidth="827" pageHeight="1169" math="0" shadow="0">
      <root>
        <mxCell id="0" />
        <mxCell id="1" parent="0" />
        <mxCell id="KtR4B6SxGBvGjt7LvImB-1" value="&lt;font style=&quot;font-size: 24px;&quot;&gt;migration&lt;br&gt;(to A)&lt;br&gt;&lt;/font&gt;" style="rounded=0;whiteSpace=wrap;html=1;" vertex="1" parent="1">
          <mxGeometry x="120" y="200" width="160" height="80" as="geometry" />
        </mxCell>
        <mxCell id="KtR4B6SxGBvGjt7LvImB-8" style="edgeStyle=orthogonalEdgeStyle;rounded=0;orthogonalLoop=1;jettySize=auto;html=1;exitX=0.5;exitY=1;exitDx=0;exitDy=0;strokeWidth=3;endArrow=classic;endFill=1;dashed=1;" edge="1" parent="1" source="KtR4B6SxGBvGjt7LvImB-2">
          <mxGeometry relative="1" as="geometry">
            <mxPoint x="400" y="360" as="targetPoint" />
          </mxGeometry>
        </mxCell>
        <mxCell id="KtR4B6SxGBvGjt7LvImB-2" value="&lt;font style=&quot;font-size: 24px;&quot;&gt;checkpoint&lt;br&gt;(to B)&lt;br&gt;&lt;/font&gt;" style="rounded=0;whiteSpace=wrap;html=1;" vertex="1" parent="1">
          <mxGeometry x="320" y="200" width="160" height="80" as="geometry" />
        </mxCell>
        <mxCell id="KtR4B6SxGBvGjt7LvImB-11" style="edgeStyle=orthogonalEdgeStyle;rounded=0;orthogonalLoop=1;jettySize=auto;html=1;exitX=0.5;exitY=1;exitDx=0;exitDy=0;entryX=0.5;entryY=0;entryDx=0;entryDy=0;strokeWidth=3;dashed=1;" edge="1" parent="1" source="KtR4B6SxGBvGjt7LvImB-3" target="KtR4B6SxGBvGjt7LvImB-4">
          <mxGeometry relative="1" as="geometry" />
        </mxCell>
        <mxCell id="KtR4B6SxGBvGjt7LvImB-3" value="&lt;font style=&quot;font-size: 24px;&quot;&gt;replication&lt;br&gt;(to C)&lt;br&gt;&lt;/font&gt;" style="rounded=0;whiteSpace=wrap;html=1;" vertex="1" parent="1">
          <mxGeometry x="520" y="200" width="160" height="80" as="geometry" />
        </mxCell>
        <mxCell id="KtR4B6SxGBvGjt7LvImB-10" style="edgeStyle=orthogonalEdgeStyle;rounded=0;orthogonalLoop=1;jettySize=auto;html=1;exitX=1;exitY=0.5;exitDx=0;exitDy=0;entryX=0;entryY=0.5;entryDx=0;entryDy=0;strokeWidth=3;" edge="1" parent="1" source="KtR4B6SxGBvGjt7LvImB-4" target="KtR4B6SxGBvGjt7LvImB-5">
          <mxGeometry relative="1" as="geometry" />
        </mxCell>
        <mxCell id="KtR4B6SxGBvGjt7LvImB-4" value="&lt;font style=&quot;font-size: 24px;&quot;&gt;RAM Copy Iterations&lt;/font&gt;" style="rounded=0;whiteSpace=wrap;html=1;" vertex="1" parent="1">
          <mxGeometry x="120" y="360" width="560" height="80" as="geometry" />
        </mxCell>
        <mxCell id="KtR4B6SxGBvGjt7LvImB-5" value="&lt;font style=&quot;font-size: 24px;&quot;&gt;A&lt;/font&gt;" style="rounded=0;whiteSpace=wrap;html=1;" vertex="1" parent="1">
          <mxGeometry x="880" y="360" width="80" height="80" as="geometry" />
        </mxCell>
        <mxCell id="KtR4B6SxGBvGjt7LvImB-7" style="edgeStyle=orthogonalEdgeStyle;rounded=0;orthogonalLoop=1;jettySize=auto;html=1;exitX=0.5;exitY=1;exitDx=0;exitDy=0;entryX=0.5;entryY=0;entryDx=0;entryDy=0;strokeWidth=3;strokeColor=#B9E0A5;" edge="1" parent="1" source="KtR4B6SxGBvGjt7LvImB-1" target="KtR4B6SxGBvGjt7LvImB-4">
          <mxGeometry relative="1" as="geometry" />
        </mxCell>
        <mxCell id="KtR4B6SxGBvGjt7LvImB-12" value="&lt;font style=&quot;font-size: 18px;&quot;&gt;outgoing migration stream&lt;/font&gt;" style="text;html=1;strokeColor=none;fillColor=none;align=center;verticalAlign=middle;whiteSpace=wrap;rounded=0;" vertex="1" parent="1">
          <mxGeometry x="680" y="340" width="200" height="60" as="geometry" />
        </mxCell>
        <mxCell id="KtR4B6SxGBvGjt7LvImB-14" value="&lt;font style=&quot;font-size: 18px;&quot;&gt;first initiated&lt;/font&gt;" style="text;html=1;strokeColor=none;fillColor=none;align=center;verticalAlign=middle;whiteSpace=wrap;rounded=0;" vertex="1" parent="1">
          <mxGeometry x="120" y="140" width="120" height="40" as="geometry" />
        </mxCell>
        <mxCell id="KtR4B6SxGBvGjt7LvImB-16" value="" style="endArrow=classic;html=1;rounded=0;exitX=0.5;exitY=1;exitDx=0;exitDy=0;entryX=0.5;entryY=0;entryDx=0;entryDy=0;" edge="1" parent="1" source="KtR4B6SxGBvGjt7LvImB-14" target="KtR4B6SxGBvGjt7LvImB-1">
          <mxGeometry width="50" height="50" relative="1" as="geometry">
            <mxPoint x="250" y="180" as="sourcePoint" />
            <mxPoint x="300" y="130" as="targetPoint" />
          </mxGeometry>
        </mxCell>
        <mxCell id="KtR4B6SxGBvGjt7LvImB-17" value="&lt;font style=&quot;font-size: 18px;&quot;&gt;later initiated&lt;/font&gt;" style="text;html=1;strokeColor=none;fillColor=none;align=center;verticalAlign=middle;whiteSpace=wrap;rounded=0;" vertex="1" parent="1">
          <mxGeometry x="440" y="140" width="120" height="40" as="geometry" />
        </mxCell>
        <mxCell id="KtR4B6SxGBvGjt7LvImB-18" value="" style="endArrow=classic;html=1;rounded=0;exitX=0.25;exitY=1;exitDx=0;exitDy=0;entryX=0.5;entryY=0;entryDx=0;entryDy=0;" edge="1" parent="1" source="KtR4B6SxGBvGjt7LvImB-17" target="KtR4B6SxGBvGjt7LvImB-2">
          <mxGeometry width="50" height="50" relative="1" as="geometry">
            <mxPoint x="640" y="160" as="sourcePoint" />
            <mxPoint x="690" y="110" as="targetPoint" />
          </mxGeometry>
        </mxCell>
        <mxCell id="KtR4B6SxGBvGjt7LvImB-19" value="" style="endArrow=classic;html=1;rounded=0;exitX=0.75;exitY=1;exitDx=0;exitDy=0;entryX=0.5;entryY=0;entryDx=0;entryDy=0;" edge="1" parent="1" source="KtR4B6SxGBvGjt7LvImB-17" target="KtR4B6SxGBvGjt7LvImB-3">
          <mxGeometry width="50" height="50" relative="1" as="geometry">
            <mxPoint x="580" y="160" as="sourcePoint" />
            <mxPoint x="630" y="110" as="targetPoint" />
          </mxGeometry>
        </mxCell>
        <mxCell id="KtR4B6SxGBvGjt7LvImB-20" value="" style="endArrow=none;html=1;rounded=0;endSize=6;strokeWidth=3;strokeColor=#FF0000;" edge="1" parent="1">
          <mxGeometry width="50" height="50" relative="1" as="geometry">
            <mxPoint x="610" y="310" as="sourcePoint" />
            <mxPoint x="590" y="290" as="targetPoint" />
          </mxGeometry>
        </mxCell>
        <mxCell id="KtR4B6SxGBvGjt7LvImB-21" value="" style="endArrow=none;html=1;rounded=0;endSize=6;strokeWidth=3;strokeColor=#FF0000;" edge="1" parent="1">
          <mxGeometry width="50" height="50" relative="1" as="geometry">
            <mxPoint x="610" y="290" as="sourcePoint" />
            <mxPoint x="590" y="310" as="targetPoint" />
          </mxGeometry>
        </mxCell>
        <mxCell id="KtR4B6SxGBvGjt7LvImB-22" value="" style="endArrow=none;html=1;rounded=0;endSize=6;strokeWidth=3;strokeColor=#FF0000;" edge="1" parent="1">
          <mxGeometry width="50" height="50" relative="1" as="geometry">
            <mxPoint x="390" y="309" as="sourcePoint" />
            <mxPoint x="410" y="289" as="targetPoint" />
          </mxGeometry>
        </mxCell>
        <mxCell id="KtR4B6SxGBvGjt7LvImB-23" value="" style="endArrow=none;html=1;rounded=0;endSize=6;strokeWidth=3;strokeColor=#FF0000;" edge="1" parent="1">
          <mxGeometry width="50" height="50" relative="1" as="geometry">
            <mxPoint x="390" y="289" as="sourcePoint" />
            <mxPoint x="410" y="309" as="targetPoint" />
          </mxGeometry>
        </mxCell>
        <mxCell id="KtR4B6SxGBvGjt7LvImB-24" value="&lt;font style=&quot;font-size: 24px;&quot;&gt;migration&lt;br&gt;(to A)&lt;br&gt;&lt;/font&gt;" style="rounded=0;whiteSpace=wrap;html=1;" vertex="1" parent="1">
          <mxGeometry x="120" y="600" width="160" height="80" as="geometry" />
        </mxCell>
        <mxCell id="KtR4B6SxGBvGjt7LvImB-25" style="edgeStyle=orthogonalEdgeStyle;rounded=0;orthogonalLoop=1;jettySize=auto;html=1;exitX=0.5;exitY=1;exitDx=0;exitDy=0;strokeWidth=3;endArrow=classic;endFill=1;strokeColor=#B9E0A5;" edge="1" parent="1" source="KtR4B6SxGBvGjt7LvImB-26">
          <mxGeometry relative="1" as="geometry">
            <mxPoint x="400" y="760" as="targetPoint" />
          </mxGeometry>
        </mxCell>
        <mxCell id="KtR4B6SxGBvGjt7LvImB-26" value="&lt;font style=&quot;font-size: 24px;&quot;&gt;checkpoint&lt;br&gt;(to B)&lt;br&gt;&lt;/font&gt;" style="rounded=0;whiteSpace=wrap;html=1;" vertex="1" parent="1">
          <mxGeometry x="320" y="600" width="160" height="80" as="geometry" />
        </mxCell>
        <mxCell id="KtR4B6SxGBvGjt7LvImB-27" style="edgeStyle=orthogonalEdgeStyle;rounded=0;orthogonalLoop=1;jettySize=auto;html=1;exitX=0.5;exitY=1;exitDx=0;exitDy=0;strokeWidth=3;strokeColor=#B9E0A5;" edge="1" parent="1" source="KtR4B6SxGBvGjt7LvImB-28">
          <mxGeometry relative="1" as="geometry">
            <mxPoint x="400" y="760" as="targetPoint" />
          </mxGeometry>
        </mxCell>
        <mxCell id="KtR4B6SxGBvGjt7LvImB-28" value="&lt;font style=&quot;font-size: 24px;&quot;&gt;replication&lt;br&gt;(to C)&lt;br&gt;&lt;/font&gt;" style="rounded=0;whiteSpace=wrap;html=1;" vertex="1" parent="1">
          <mxGeometry x="520" y="600" width="160" height="80" as="geometry" />
        </mxCell>
        <mxCell id="KtR4B6SxGBvGjt7LvImB-29" style="edgeStyle=orthogonalEdgeStyle;rounded=0;orthogonalLoop=1;jettySize=auto;html=1;exitX=1;exitY=0.5;exitDx=0;exitDy=0;strokeWidth=3;" edge="1" parent="1">
          <mxGeometry relative="1" as="geometry">
            <mxPoint x="520" y="800" as="sourcePoint" />
            <mxPoint x="600" y="800" as="targetPoint" />
          </mxGeometry>
        </mxCell>
        <mxCell id="KtR4B6SxGBvGjt7LvImB-30" value="&lt;font style=&quot;font-size: 24px;&quot;&gt;RAM Copy Iterations&lt;/font&gt;" style="rounded=0;whiteSpace=wrap;html=1;" vertex="1" parent="1">
          <mxGeometry x="120" y="760" width="400" height="80" as="geometry" />
        </mxCell>
        <mxCell id="KtR4B6SxGBvGjt7LvImB-31" value="&lt;font style=&quot;font-size: 24px;&quot;&gt;A&lt;/font&gt;" style="rounded=0;whiteSpace=wrap;html=1;" vertex="1" parent="1">
          <mxGeometry x="880" y="640" width="80" height="80" as="geometry" />
        </mxCell>
        <mxCell id="KtR4B6SxGBvGjt7LvImB-32" style="edgeStyle=orthogonalEdgeStyle;rounded=0;orthogonalLoop=1;jettySize=auto;html=1;exitX=0.5;exitY=1;exitDx=0;exitDy=0;strokeWidth=3;strokeColor=#B9E0A5;" edge="1" parent="1" source="KtR4B6SxGBvGjt7LvImB-24">
          <mxGeometry relative="1" as="geometry">
            <mxPoint x="400" y="760" as="targetPoint" />
          </mxGeometry>
        </mxCell>
        <mxCell id="KtR4B6SxGBvGjt7LvImB-33" value="&lt;span style=&quot;font-size: 18px;&quot;&gt;asynchronous&lt;br&gt;outgoing streams&lt;br&gt;&lt;/span&gt;" style="text;html=1;strokeColor=none;fillColor=none;align=center;verticalAlign=middle;whiteSpace=wrap;rounded=0;" vertex="1" parent="1">
          <mxGeometry x="720" y="900" width="160" height="60" as="geometry" />
        </mxCell>
        <mxCell id="KtR4B6SxGBvGjt7LvImB-34" value="&lt;font style=&quot;font-size: 18px;&quot;&gt;first initiated&lt;/font&gt;" style="text;html=1;strokeColor=none;fillColor=none;align=center;verticalAlign=middle;whiteSpace=wrap;rounded=0;" vertex="1" parent="1">
          <mxGeometry x="120" y="540" width="120" height="40" as="geometry" />
        </mxCell>
        <mxCell id="KtR4B6SxGBvGjt7LvImB-35" value="" style="endArrow=classic;html=1;rounded=0;exitX=0.5;exitY=1;exitDx=0;exitDy=0;entryX=0.5;entryY=0;entryDx=0;entryDy=0;" edge="1" parent="1" source="KtR4B6SxGBvGjt7LvImB-34" target="KtR4B6SxGBvGjt7LvImB-24">
          <mxGeometry width="50" height="50" relative="1" as="geometry">
            <mxPoint x="250" y="580" as="sourcePoint" />
            <mxPoint x="300" y="530" as="targetPoint" />
          </mxGeometry>
        </mxCell>
        <mxCell id="KtR4B6SxGBvGjt7LvImB-36" value="&lt;font style=&quot;font-size: 18px;&quot;&gt;later initiated&lt;/font&gt;" style="text;html=1;strokeColor=none;fillColor=none;align=center;verticalAlign=middle;whiteSpace=wrap;rounded=0;" vertex="1" parent="1">
          <mxGeometry x="440" y="540" width="120" height="40" as="geometry" />
        </mxCell>
        <mxCell id="KtR4B6SxGBvGjt7LvImB-37" value="" style="endArrow=classic;html=1;rounded=0;exitX=0.25;exitY=1;exitDx=0;exitDy=0;entryX=0.5;entryY=0;entryDx=0;entryDy=0;" edge="1" parent="1" source="KtR4B6SxGBvGjt7LvImB-36" target="KtR4B6SxGBvGjt7LvImB-26">
          <mxGeometry width="50" height="50" relative="1" as="geometry">
            <mxPoint x="640" y="560" as="sourcePoint" />
            <mxPoint x="690" y="510" as="targetPoint" />
          </mxGeometry>
        </mxCell>
        <mxCell id="KtR4B6SxGBvGjt7LvImB-38" value="" style="endArrow=classic;html=1;rounded=0;exitX=0.75;exitY=1;exitDx=0;exitDy=0;entryX=0.5;entryY=0;entryDx=0;entryDy=0;" edge="1" parent="1" source="KtR4B6SxGBvGjt7LvImB-36" target="KtR4B6SxGBvGjt7LvImB-28">
          <mxGeometry width="50" height="50" relative="1" as="geometry">
            <mxPoint x="580" y="560" as="sourcePoint" />
            <mxPoint x="630" y="510" as="targetPoint" />
          </mxGeometry>
        </mxCell>
        <mxCell id="KtR4B6SxGBvGjt7LvImB-43" value="&lt;font color=&quot;#ff0000&quot; style=&quot;font-size: 18px;&quot;&gt;globally unique&lt;/font&gt;" style="text;html=1;strokeColor=none;fillColor=none;align=center;verticalAlign=middle;whiteSpace=wrap;rounded=0;" vertex="1" parent="1">
          <mxGeometry x="760" y="260" width="140" height="40" as="geometry" />
        </mxCell>
        <mxCell id="KtR4B6SxGBvGjt7LvImB-44" value="" style="endArrow=classic;html=1;rounded=0;exitX=0.25;exitY=1;exitDx=0;exitDy=0;entryX=0.5;entryY=0;entryDx=0;entryDy=0;" edge="1" parent="1" source="KtR4B6SxGBvGjt7LvImB-43" target="KtR4B6SxGBvGjt7LvImB-12">
          <mxGeometry width="50" height="50" relative="1" as="geometry">
            <mxPoint x="900" y="290" as="sourcePoint" />
            <mxPoint x="950" y="240" as="targetPoint" />
          </mxGeometry>
        </mxCell>
        <mxCell id="KtR4B6SxGBvGjt7LvImB-48" style="edgeStyle=orthogonalEdgeStyle;rounded=0;orthogonalLoop=1;jettySize=auto;html=1;exitX=1;exitY=0.5;exitDx=0;exitDy=0;entryX=0;entryY=0.5;entryDx=0;entryDy=0;strokeWidth=3;" edge="1" parent="1" source="KtR4B6SxGBvGjt7LvImB-45" target="KtR4B6SxGBvGjt7LvImB-46">
          <mxGeometry relative="1" as="geometry" />
        </mxCell>
        <mxCell id="KtR4B6SxGBvGjt7LvImB-45" value="&lt;font style=&quot;font-size: 24px;&quot;&gt;stream&lt;br&gt;dispatcher&lt;br&gt;&lt;/font&gt;" style="rounded=0;whiteSpace=wrap;html=1;" vertex="1" parent="1">
          <mxGeometry x="600" y="760" width="160" height="80" as="geometry" />
        </mxCell>
        <mxCell id="KtR4B6SxGBvGjt7LvImB-46" value="&lt;font style=&quot;font-size: 24px;&quot;&gt;B&lt;/font&gt;" style="rounded=0;whiteSpace=wrap;html=1;" vertex="1" parent="1">
          <mxGeometry x="880" y="760" width="80" height="80" as="geometry" />
        </mxCell>
        <mxCell id="KtR4B6SxGBvGjt7LvImB-47" value="&lt;font style=&quot;font-size: 24px;&quot;&gt;C&lt;/font&gt;" style="rounded=0;whiteSpace=wrap;html=1;" vertex="1" parent="1">
          <mxGeometry x="880" y="880" width="80" height="80" as="geometry" />
        </mxCell>
        <mxCell id="KtR4B6SxGBvGjt7LvImB-49" value="" style="endArrow=classic;html=1;rounded=0;entryX=0;entryY=0.5;entryDx=0;entryDy=0;strokeWidth=3;" edge="1" parent="1" target="KtR4B6SxGBvGjt7LvImB-31">
          <mxGeometry width="50" height="50" relative="1" as="geometry">
            <mxPoint x="760" y="800" as="sourcePoint" />
            <mxPoint x="810" y="750" as="targetPoint" />
          </mxGeometry>
        </mxCell>
        <mxCell id="KtR4B6SxGBvGjt7LvImB-50" value="" style="endArrow=classic;html=1;rounded=0;entryX=0;entryY=0.5;entryDx=0;entryDy=0;strokeWidth=3;" edge="1" parent="1" target="KtR4B6SxGBvGjt7LvImB-47">
          <mxGeometry width="50" height="50" relative="1" as="geometry">
            <mxPoint x="760" y="800" as="sourcePoint" />
            <mxPoint x="910" y="700" as="targetPoint" />
          </mxGeometry>
        </mxCell>
      </root>
    </mxGraphModel>
  </diagram>
</mxfile>
